<?xml version="1.0" encoding="utf-8"?>
<!-- Generator: Adobe Illustrator 18.1.1, SVG Export Plug-In . SVG Version: 6.00 Build 0)  -->
<!DOCTYPE svg PUBLIC "-//W3C//DTD SVG 1.1//EN" "http://www.w3.org/Graphics/SVG/1.1/DTD/svg11.dtd">
<svg version="1.1" id="Layer_1" xmlns="http://www.w3.org/2000/svg" xmlns:xlink="http://www.w3.org/1999/xlink" x="0px" y="0px"
	 viewBox="83 -108.9 266.9 266.9" enable-background="new 83 -108.9 266.9 266.9" xml:space="preserve">
<path fill="#3C5A99" d="M331.1-104.3H101.8c-7.9,0-14.2,6.4-14.2,14.2v229.3c0,7.9,6.4,14.2,14.2,14.2h123.4V53.6h-33.6V14.7h33.6
	V-14c0-33.3,20.3-51.4,50-51.4c14.2,0,26.5,1.1,30,1.5v34.8l-20.6,0c-16.1,0-19.3,7.7-19.3,18.9v24.8h38.5l-5,38.9h-33.5v99.8h65.7
	c7.9,0,14.2-6.4,14.2-14.2V-90.1C345.3-97.9,338.9-104.3,331.1-104.3z"/>
</svg>
